<svg width="480" height="80" viewBox="0 0 480 80" fill="none" xmlns="http://www.w3.org/2000/svg">
<mask id="path-1-outside-1_16_119" maskUnits="userSpaceOnUse" x="-2" y="-2" width="484" height="84" fill="black">
<rect fill="white" x="-2" y="-2" width="484" height="84"/>
<path d="M16.5 22V40.5H48.9V53.5H16.5V79H0.3V9H53.2V22H16.5ZM115.9 25.2V79H101.1V72.6C99.0333 74.9333 96.5667 76.7333 93.7 78C90.8333 79.2 87.7333 79.8 84.4 79.8C77.3333 79.8 71.7333 77.7667 67.6 73.7C63.4667 69.6333 61.4 63.6 61.4 55.6V25.2H77V53.3C77 61.9667 80.6333 66.3 87.9 66.3C91.6333 66.3 94.6333 65.1 96.9 62.7C99.1667 60.2333 100.3 56.6 100.3 51.8V25.2H115.9ZM145.252 32.3C147.119 29.7 149.619 27.7333 152.752 26.4C155.952 25.0667 159.619 24.4 163.752 24.4V38.8C162.019 38.6667 160.852 38.6 160.252 38.6C155.786 38.6 152.286 39.8667 149.752 42.4C147.219 44.8667 145.952 48.6 145.952 53.6V79H130.352V25.2H145.252V32.3ZM205.728 24.4C212.395 24.4 217.761 26.4 221.828 30.4C225.961 34.4 228.028 40.3333 228.028 48.2V79H212.428V50.6C212.428 46.3333 211.495 43.1667 209.628 41.1C207.761 38.9667 205.061 37.9 201.528 37.9C197.595 37.9 194.461 39.1333 192.128 41.6C189.795 44 188.628 47.6 188.628 52.4V79H173.028V25.2H187.928V31.5C189.995 29.2333 192.561 27.5 195.628 26.3C198.695 25.0333 202.061 24.4 205.728 24.4ZM242.169 25.2H257.769V79H242.169V25.2ZM249.969 17.7C247.102 17.7 244.769 16.8667 242.969 15.2C241.169 13.5333 240.269 11.4667 240.269 9C240.269 6.53333 241.169 4.46666 242.969 2.8C244.769 1.13333 247.102 0.299994 249.969 0.299994C252.835 0.299994 255.169 1.1 256.969 2.7C258.769 4.3 259.669 6.3 259.669 8.7C259.669 11.3 258.769 13.4667 256.969 15.2C255.169 16.8667 252.835 17.7 249.969 17.7ZM306.947 76.4C305.414 77.5333 303.514 78.4 301.247 79C299.047 79.5333 296.714 79.8 294.247 79.8C287.847 79.8 282.88 78.1667 279.347 74.9C275.88 71.6333 274.147 66.8333 274.147 60.5V38.4H265.847V26.4H274.147V13.3H289.747V26.4H303.147V38.4H289.747V60.3C289.747 62.5667 290.314 64.3333 291.447 65.6C292.647 66.8 294.314 67.4 296.447 67.4C298.914 67.4 301.014 66.7333 302.747 65.4L306.947 76.4ZM369.904 25.2V79H355.104V72.6C353.037 74.9333 350.571 76.7333 347.704 78C344.837 79.2 341.737 79.8 338.404 79.8C331.337 79.8 325.737 77.7667 321.604 73.7C317.471 69.6333 315.404 63.6 315.404 55.6V25.2H331.004V53.3C331.004 61.9667 334.637 66.3 341.904 66.3C345.637 66.3 348.637 65.1 350.904 62.7C353.171 60.2333 354.304 56.6 354.304 51.8V25.2H369.904ZM399.256 32.3C401.123 29.7 403.623 27.7333 406.756 26.4C409.956 25.0667 413.623 24.4 417.756 24.4V38.8C416.023 38.6667 414.856 38.6 414.256 38.6C409.79 38.6 406.29 39.8667 403.756 42.4C401.223 44.8667 399.956 48.6 399.956 53.6V79H384.356V25.2H399.256V32.3ZM479.244 52.3C479.244 52.5 479.144 53.9 478.944 56.5H438.244C438.977 59.8333 440.71 62.4667 443.444 64.4C446.177 66.3333 449.577 67.3 453.644 67.3C456.444 67.3 458.91 66.9 461.044 66.1C463.244 65.2333 465.277 63.9 467.144 62.1L475.444 71.1C470.377 76.9 462.977 79.8 453.244 79.8C447.177 79.8 441.81 78.6333 437.144 76.3C432.477 73.9 428.877 70.6 426.344 66.4C423.81 62.2 422.544 57.4333 422.544 52.1C422.544 46.8333 423.777 42.1 426.244 37.9C428.777 33.6333 432.21 30.3333 436.544 28C440.944 25.6 445.844 24.4 451.244 24.4C456.51 24.4 461.277 25.5333 465.544 27.8C469.81 30.0667 473.144 33.3333 475.544 37.6C478.01 41.8 479.244 46.7 479.244 52.3ZM451.344 36.2C447.81 36.2 444.844 37.2 442.444 39.2C440.044 41.2 438.577 43.9333 438.044 47.4H464.544C464.01 44 462.544 41.3 460.144 39.3C457.744 37.2333 454.81 36.2 451.344 36.2Z"/>
</mask>
<path d="M16.5 22V20H14.5V22H16.5ZM16.5 40.5H14.5V42.5H16.5V40.5ZM48.9 40.5H50.9V38.5H48.9V40.5ZM48.9 53.5V55.5H50.9V53.5H48.9ZM16.5 53.5V51.5H14.5V53.5H16.5ZM16.5 79V81H18.5V79H16.5ZM0.3 79H-1.7V81H0.3V79ZM0.3 9V7H-1.7V9H0.3ZM53.2 9H55.2V7H53.2V9ZM53.2 22V24H55.2V22H53.2ZM14.5 22V40.5H18.5V22H14.5ZM16.5 42.5H48.9V38.5H16.5V42.5ZM46.9 40.5V53.5H50.9V40.5H46.9ZM48.9 51.5H16.5V55.5H48.9V51.5ZM14.5 53.5V79H18.5V53.5H14.5ZM16.5 77H0.3V81H16.5V77ZM2.3 79V9H-1.7V79H2.3ZM0.3 11H53.2V7H0.3V11ZM51.2 9V22H55.2V9H51.2ZM53.2 20H16.5V24H53.2V20ZM115.9 25.2H117.9V23.2H115.9V25.2ZM115.9 79V81H117.9V79H115.9ZM101.1 79H99.1V81H101.1V79ZM101.1 72.6H103.1V67.3255L99.6028 71.2739L101.1 72.6ZM93.7 78L94.4723 79.8449L94.4904 79.8373L94.5083 79.8294L93.7 78ZM67.6 73.7L69.0027 72.2743L67.6 73.7ZM61.4 25.2V23.2H59.4V25.2H61.4ZM77 25.2H79V23.2H77V25.2ZM96.9 62.7L98.354 64.0732L98.3634 64.0633L98.3727 64.0533L96.9 62.7ZM100.3 25.2V23.2H98.3V25.2H100.3ZM113.9 25.2V79H117.9V25.2H113.9ZM115.9 77H101.1V81H115.9V77ZM103.1 79V72.6H99.1V79H103.1ZM99.6028 71.2739C97.728 73.3907 95.4967 75.0196 92.8917 76.1706L94.5083 79.8294C97.6367 78.4471 100.339 76.476 102.597 73.9261L99.6028 71.2739ZM92.9277 76.1551C90.323 77.2455 87.4876 77.8 84.4 77.8V81.8C87.979 81.8 91.3437 81.1545 94.4723 79.8449L92.9277 76.1551ZM84.4 77.8C77.7362 77.8 72.6832 75.8955 69.0027 72.2743L66.1973 75.1257C70.7835 79.6379 76.9305 81.8 84.4 81.8V77.8ZM69.0027 72.2743C65.378 68.7081 63.4 63.2721 63.4 55.6H59.4C59.4 63.9279 61.5554 70.5586 66.1973 75.1257L69.0027 72.2743ZM63.4 55.6V25.2H59.4V55.6H63.4ZM61.4 27.2H77V23.2H61.4V27.2ZM75 25.2V53.3H79V25.2H75ZM75 53.3C75 57.8641 75.9494 61.6598 78.1924 64.335C80.4921 67.0777 83.8568 68.3 87.9 68.3V64.3C84.6765 64.3 82.5912 63.3556 81.2576 61.765C79.8673 60.1069 79 57.4025 79 53.3H75ZM87.9 68.3C92.1044 68.3 95.6584 66.9275 98.354 64.0732L95.446 61.3268C93.6083 63.2725 91.1623 64.3 87.9 64.3V68.3ZM98.3727 64.0533C101.101 61.0847 102.3 56.8857 102.3 51.8H98.3C98.3 56.3143 97.2328 59.382 95.4273 61.3467L98.3727 64.0533ZM102.3 51.8V25.2H98.3V51.8H102.3ZM100.3 27.2H115.9V23.2H100.3V27.2ZM145.252 32.3H143.252V38.515L146.877 33.4664L145.252 32.3ZM152.752 26.4L151.983 24.5538L151.976 24.5567L151.969 24.5597L152.752 26.4ZM163.752 24.4H165.752V22.4H163.752V24.4ZM163.752 38.8L163.599 40.7941L165.752 40.9598V38.8H163.752ZM149.752 42.4L151.148 43.8329L151.157 43.8236L151.167 43.8142L149.752 42.4ZM145.952 79V81H147.952V79H145.952ZM130.352 79H128.352V81H130.352V79ZM130.352 25.2V23.2H128.352V25.2H130.352ZM145.252 25.2H147.252V23.2H145.252V25.2ZM146.877 33.4664C148.516 31.183 150.717 29.4398 153.535 28.2403L151.969 24.5597C148.521 26.0268 145.722 28.217 143.628 31.1336L146.877 33.4664ZM153.522 28.2462C156.436 27.0319 159.833 26.4 163.752 26.4V22.4C159.405 22.4 155.469 23.1014 151.983 24.5538L153.522 28.2462ZM161.752 24.4V38.8H165.752V24.4H161.752ZM163.906 36.8059C162.183 36.6734 160.941 36.6 160.252 36.6V40.6C160.763 40.6 161.855 40.6599 163.599 40.7941L163.906 36.8059ZM160.252 36.6C155.394 36.6 151.334 37.9897 148.338 40.9858L151.167 43.8142C153.237 41.7436 156.178 40.6 160.252 40.6V36.6ZM148.357 40.9671C145.3 43.9435 143.952 48.2872 143.952 53.6H147.952C147.952 48.9128 149.138 45.7898 151.148 43.8329L148.357 40.9671ZM143.952 53.6V79H147.952V53.6H143.952ZM145.952 77H130.352V81H145.952V77ZM132.352 79V25.2H128.352V79H132.352ZM130.352 27.2H145.252V23.2H130.352V27.2ZM143.252 25.2V32.3H147.252V25.2H143.252ZM221.828 30.4L220.426 31.8259L220.431 31.8316L220.437 31.8372L221.828 30.4ZM228.028 79V81H230.028V79H228.028ZM212.428 79H210.428V81H212.428V79ZM209.628 41.1L208.123 42.417L208.133 42.4289L208.144 42.4406L209.628 41.1ZM192.128 41.6L193.562 42.9942L193.572 42.9843L193.581 42.9744L192.128 41.6ZM188.628 79V81H190.628V79H188.628ZM173.028 79H171.028V81H173.028V79ZM173.028 25.2V23.2H171.028V25.2H173.028ZM187.928 25.2H189.928V23.2H187.928V25.2ZM187.928 31.5H185.928V36.662L189.406 32.8475L187.928 31.5ZM195.628 26.3L196.357 28.1625L196.374 28.1557L196.392 28.1485L195.628 26.3ZM205.728 26.4C211.965 26.4 216.796 28.2556 220.426 31.8259L223.231 28.9741C218.727 24.5444 212.824 22.4 205.728 22.4V26.4ZM220.437 31.8372C224.055 35.3384 226.028 40.6702 226.028 48.2H230.028C230.028 39.9965 227.868 33.4616 223.219 28.9628L220.437 31.8372ZM226.028 48.2V79H230.028V48.2H226.028ZM228.028 77H212.428V81H228.028V77ZM214.428 79V50.6H210.428V79H214.428ZM214.428 50.6C214.428 46.0924 213.449 42.3466 211.112 39.7594L208.144 42.4406C209.54 43.9867 210.428 46.5742 210.428 50.6H214.428ZM211.133 39.783C208.796 37.1121 205.485 35.9 201.528 35.9V39.9C204.638 39.9 206.727 40.8213 208.123 42.417L211.133 39.783ZM201.528 35.9C197.14 35.9 193.447 37.2954 190.675 40.2256L193.581 42.9744C195.476 40.9713 198.049 39.9 201.528 39.9V35.9ZM190.694 40.2058C187.866 43.1149 186.628 47.3056 186.628 52.4H190.628C190.628 47.8944 191.724 44.8851 193.562 42.9942L190.694 40.2058ZM186.628 52.4V79H190.628V52.4H186.628ZM188.628 77H173.028V81H188.628V77ZM175.028 79V25.2H171.028V79H175.028ZM173.028 27.2H187.928V23.2H173.028V27.2ZM185.928 25.2V31.5H189.928V25.2H185.928ZM189.406 32.8475C191.251 30.8242 193.555 29.259 196.357 28.1625L194.899 24.4375C191.568 25.741 188.739 27.6425 186.45 30.1525L189.406 32.8475ZM196.392 28.1485C199.192 26.9919 202.296 26.4 205.728 26.4V22.4C201.827 22.4 198.198 23.0748 194.865 24.4515L196.392 28.1485ZM242.169 25.2V23.2H240.169V25.2H242.169ZM257.769 25.2H259.769V23.2H257.769V25.2ZM257.769 79V81H259.769V79H257.769ZM242.169 79H240.169V81H242.169V79ZM242.969 15.2L241.61 16.6675V16.6675L242.969 15.2ZM242.969 2.8L244.328 4.26752V4.26752L242.969 2.8ZM256.969 2.7L255.64 4.19482V4.19482L256.969 2.7ZM256.969 15.2L258.328 16.6675L258.342 16.6542L258.356 16.6406L256.969 15.2ZM242.169 27.2H257.769V23.2H242.169V27.2ZM255.769 25.2V79H259.769V25.2H255.769ZM257.769 77H242.169V81H257.769V77ZM244.169 79V25.2H240.169V79H244.169ZM249.969 15.7C247.515 15.7 245.696 14.9999 244.328 13.7325L241.61 16.6675C243.841 18.7334 246.689 19.7 249.969 19.7V15.7ZM244.328 13.7325C242.939 12.4467 242.269 10.913 242.269 9H238.269C238.269 12.0203 239.399 14.62 241.61 16.6675L244.328 13.7325ZM242.269 9C242.269 7.08695 242.939 5.55329 244.328 4.26752L241.61 1.33248C239.399 3.38003 238.269 5.97971 238.269 9H242.269ZM244.328 4.26752C245.696 3.00011 247.515 2.29999 249.969 2.29999V-1.70001C246.689 -1.70001 243.841 -0.733454 241.61 1.33248L244.328 4.26752ZM249.969 2.29999C252.444 2.29999 254.273 2.9801 255.64 4.19482L258.297 1.20518C256.064 -0.780109 253.227 -1.70001 249.969 -1.70001V2.29999ZM255.64 4.19482C257.015 5.41679 257.669 6.87354 257.669 8.7H261.669C261.669 5.72645 260.523 3.1832 258.297 1.20518L255.64 4.19482ZM257.669 8.7C257.669 10.7812 256.973 12.4198 255.581 13.7594L258.356 16.6406C260.565 14.5135 261.669 11.8188 261.669 8.7H257.669ZM255.61 13.7325C254.241 14.9999 252.422 15.7 249.969 15.7V19.7C253.249 19.7 256.096 18.7334 258.328 16.6675L255.61 13.7325ZM306.947 76.4L308.136 78.0084L309.357 77.1056L308.815 75.6866L306.947 76.4ZM301.247 79L301.718 80.9437L301.738 80.9388L301.759 80.9334L301.247 79ZM279.347 74.9L277.975 76.3556L277.982 76.3621L277.989 76.3685L279.347 74.9ZM274.147 38.4H276.147V36.4H274.147V38.4ZM265.847 38.4H263.847V40.4H265.847V38.4ZM265.847 26.4V24.4H263.847V26.4H265.847ZM274.147 26.4V28.4H276.147V26.4H274.147ZM274.147 13.3V11.3H272.147V13.3H274.147ZM289.747 13.3H291.747V11.3H289.747V13.3ZM289.747 26.4H287.747V28.4H289.747V26.4ZM303.147 26.4H305.147V24.4H303.147V26.4ZM303.147 38.4V40.4H305.147V38.4H303.147ZM289.747 38.4V36.4H287.747V38.4H289.747ZM291.447 65.6L289.956 66.9336L289.993 66.975L290.033 67.0142L291.447 65.6ZM302.747 65.4L304.615 64.6866L303.657 62.1767L301.527 63.8148L302.747 65.4ZM305.758 74.7916C304.469 75.7447 302.812 76.5168 300.735 77.0666L301.759 80.9334C304.215 80.2832 306.358 79.322 308.136 78.0084L305.758 74.7916ZM300.776 77.0563C298.743 77.5491 296.569 77.8 294.247 77.8V81.8C296.858 81.8 299.351 81.5176 301.718 80.9437L300.776 77.0563ZM294.247 77.8C288.18 77.8 283.76 76.2564 280.705 73.4315L277.989 76.3685C282 80.0769 287.513 81.8 294.247 81.8V77.8ZM280.718 73.4444C277.773 70.6685 276.147 66.4719 276.147 60.5H272.147C272.147 67.1948 273.988 72.5981 277.975 76.3556L280.718 73.4444ZM276.147 60.5V38.4H272.147V60.5H276.147ZM274.147 36.4H265.847V40.4H274.147V36.4ZM267.847 38.4V26.4H263.847V38.4H267.847ZM265.847 28.4H274.147V24.4H265.847V28.4ZM276.147 26.4V13.3H272.147V26.4H276.147ZM274.147 15.3H289.747V11.3H274.147V15.3ZM287.747 13.3V26.4H291.747V13.3H287.747ZM289.747 28.4H303.147V24.4H289.747V28.4ZM301.147 26.4V38.4H305.147V26.4H301.147ZM303.147 36.4H289.747V40.4H303.147V36.4ZM287.747 38.4V60.3H291.747V38.4H287.747ZM287.747 60.3C287.747 62.8919 288.399 65.1925 289.956 66.9336L292.937 64.2664C292.229 63.4742 291.747 62.2414 291.747 60.3H287.747ZM290.033 67.0142C291.698 68.68 293.927 69.4 296.447 69.4V65.4C294.7 65.4 293.595 64.92 292.861 64.1858L290.033 67.0142ZM296.447 69.4C299.295 69.4 301.839 68.6216 303.966 66.9852L301.527 63.8148C300.188 64.8451 298.532 65.4 296.447 65.4V69.4ZM300.878 66.1134L305.078 77.1134L308.815 75.6866L304.615 64.6866L300.878 66.1134ZM369.904 25.2H371.904V23.2H369.904V25.2ZM369.904 79V81H371.904V79H369.904ZM355.104 79H353.104V81H355.104V79ZM355.104 72.6H357.104V67.3255L353.607 71.2739L355.104 72.6ZM347.704 78L348.476 79.8449L348.494 79.8373L348.512 79.8294L347.704 78ZM321.604 73.7L323.007 72.2743L321.604 73.7ZM315.404 25.2V23.2H313.404V25.2H315.404ZM331.004 25.2H333.004V23.2H331.004V25.2ZM350.904 62.7L352.358 64.0732L352.367 64.0633L352.377 64.0533L350.904 62.7ZM354.304 25.2V23.2H352.304V25.2H354.304ZM367.904 25.2V79H371.904V25.2H367.904ZM369.904 77H355.104V81H369.904V77ZM357.104 79V72.6H353.104V79H357.104ZM353.607 71.2739C351.732 73.3907 349.501 75.0196 346.896 76.1706L348.512 79.8294C351.641 78.4471 354.343 76.476 356.601 73.9261L353.607 71.2739ZM346.932 76.1551C344.327 77.2455 341.492 77.8 338.404 77.8V81.8C341.983 81.8 345.348 81.1545 348.476 79.8449L346.932 76.1551ZM338.404 77.8C331.74 77.8 326.687 75.8955 323.007 72.2743L320.201 75.1257C324.787 79.6379 330.934 81.8 338.404 81.8V77.8ZM323.007 72.2743C319.382 68.7081 317.404 63.2721 317.404 55.6H313.404C313.404 63.9279 315.559 70.5586 320.201 75.1257L323.007 72.2743ZM317.404 55.6V25.2H313.404V55.6H317.404ZM315.404 27.2H331.004V23.2H315.404V27.2ZM329.004 25.2V53.3H333.004V25.2H329.004ZM329.004 53.3C329.004 57.8641 329.953 61.6598 332.196 64.335C334.496 67.0777 337.861 68.3 341.904 68.3V64.3C338.68 64.3 336.595 63.3556 335.261 61.765C333.871 60.1069 333.004 57.4025 333.004 53.3H329.004ZM341.904 68.3C346.108 68.3 349.662 66.9275 352.358 64.0732L349.45 61.3268C347.612 63.2725 345.166 64.3 341.904 64.3V68.3ZM352.377 64.0533C355.104 61.0847 356.304 56.8857 356.304 51.8H352.304C352.304 56.3143 351.237 59.382 349.431 61.3467L352.377 64.0533ZM356.304 51.8V25.2H352.304V51.8H356.304ZM354.304 27.2H369.904V23.2H354.304V27.2ZM399.256 32.3H397.256V38.515L400.881 33.4664L399.256 32.3ZM406.756 26.4L405.987 24.5538L405.98 24.5567L405.973 24.5597L406.756 26.4ZM417.756 24.4H419.756V22.4H417.756V24.4ZM417.756 38.8L417.603 40.7941L419.756 40.9598V38.8H417.756ZM403.756 42.4L405.151 43.8329L405.161 43.8236L405.17 43.8142L403.756 42.4ZM399.956 79V81H401.956V79H399.956ZM384.356 79H382.356V81H384.356V79ZM384.356 25.2V23.2H382.356V25.2H384.356ZM399.256 25.2H401.256V23.2H399.256V25.2ZM400.881 33.4664C402.52 31.183 404.721 29.4398 407.539 28.2403L405.973 24.5597C402.525 26.0268 399.726 28.217 397.632 31.1336L400.881 33.4664ZM407.525 28.2462C410.44 27.0319 413.837 26.4 417.756 26.4V22.4C413.409 22.4 409.473 23.1014 405.987 24.5538L407.525 28.2462ZM415.756 24.4V38.8H419.756V24.4H415.756ZM417.91 36.8059C416.187 36.6734 414.945 36.6 414.256 36.6V40.6C414.767 40.6 415.859 40.6599 417.603 40.7941L417.91 36.8059ZM414.256 36.6C409.398 36.6 405.338 37.9897 402.342 40.9858L405.17 43.8142C407.241 41.7436 410.182 40.6 414.256 40.6V36.6ZM402.361 40.9671C399.304 43.9435 397.956 48.2872 397.956 53.6H401.956C401.956 48.9128 403.142 45.7898 405.151 43.8329L402.361 40.9671ZM397.956 53.6V79H401.956V53.6H397.956ZM399.956 77H384.356V81H399.956V77ZM386.356 79V25.2H382.356V79H386.356ZM384.356 27.2H399.256V23.2H384.356V27.2ZM397.256 25.2V32.3H401.256V25.2H397.256ZM478.944 56.5V58.5H480.796L480.938 56.6534L478.944 56.5ZM438.244 56.5V54.5H435.756L436.29 56.9297L438.244 56.5ZM443.444 64.4L444.599 62.7672L443.444 64.4ZM461.044 66.1L461.746 67.9727L461.761 67.9669L461.777 67.9608L461.044 66.1ZM467.144 62.1L468.614 60.7441L467.228 59.2408L465.755 60.6603L467.144 62.1ZM475.444 71.1L476.95 72.4158L478.131 71.0638L476.914 69.7441L475.444 71.1ZM437.144 76.3L436.229 78.0786L436.239 78.0838L436.249 78.0889L437.144 76.3ZM426.344 66.4L424.631 67.433L426.344 66.4ZM426.244 37.9L424.524 36.8789L424.519 36.8872L426.244 37.9ZM436.544 28L437.492 29.761L437.501 29.7558L436.544 28ZM465.544 27.8L466.482 26.0338L465.544 27.8ZM475.544 37.6L473.801 38.5805L473.81 38.5968L473.819 38.6128L475.544 37.6ZM442.444 39.2L441.163 37.6636L442.444 39.2ZM438.044 47.4L436.067 47.0959L435.713 49.4H438.044V47.4ZM464.544 47.4V49.4H466.882L466.52 47.0901L464.544 47.4ZM460.144 39.3L458.839 40.8155L458.851 40.8261L458.863 40.8364L460.144 39.3ZM477.244 52.3C477.244 52.2734 477.243 52.3269 477.229 52.5502C477.217 52.7415 477.199 53.0098 477.174 53.3575C477.124 54.052 477.05 55.0477 476.95 56.3466L480.938 56.6534C481.132 54.1275 481.244 52.6014 481.244 52.3H477.244ZM478.944 54.5H438.244V58.5H478.944V54.5ZM436.29 56.9297C437.129 60.7391 439.14 63.8057 442.289 66.0328L444.599 62.7672C442.281 61.1276 440.826 58.9276 440.197 56.0703L436.29 56.9297ZM442.289 66.0328C445.427 68.2524 449.254 69.3 453.644 69.3V65.3C449.9 65.3 446.927 64.4143 444.599 62.7672L442.289 66.0328ZM453.644 69.3C456.631 69.3 459.343 68.8737 461.746 67.9727L460.341 64.2273C458.478 64.9263 456.257 65.3 453.644 65.3V69.3ZM461.777 67.9608C464.243 66.9892 466.495 65.504 468.532 63.5397L465.755 60.6603C464.059 62.296 462.244 63.4775 460.311 64.2392L461.777 67.9608ZM465.674 63.4559L473.974 72.4559L476.914 69.7441L468.614 60.7441L465.674 63.4559ZM473.938 69.7842C469.347 75.0396 462.564 77.8 453.244 77.8V81.8C463.391 81.8 471.408 78.7604 476.95 72.4158L473.938 69.7842ZM453.244 77.8C447.437 77.8 442.385 76.6847 438.038 74.5111L436.249 78.0889C441.236 80.582 446.917 81.8 453.244 81.8V77.8ZM438.058 74.5214C433.698 72.2788 430.385 69.2269 428.056 65.367L424.631 67.433C427.37 71.9731 431.256 75.5212 436.229 78.0786L438.058 74.5214ZM428.056 65.367C425.727 61.5058 424.544 57.1022 424.544 52.1H420.544C420.544 57.7645 421.893 62.8942 424.631 67.433L428.056 65.367ZM424.544 52.1C424.544 47.1595 425.697 42.781 427.968 38.9128L424.519 36.8872C421.858 41.419 420.544 46.5071 420.544 52.1H424.544ZM427.963 38.9211C430.313 34.9638 433.481 31.9207 437.492 29.7609L435.596 26.2391C430.94 28.7459 427.241 32.3029 424.524 36.8789L427.963 38.9211ZM437.501 29.7558C441.585 27.5283 446.152 26.4 451.244 26.4V22.4C445.536 22.4 440.302 23.6717 435.586 26.2442L437.501 29.7558ZM451.244 26.4C456.213 26.4 460.653 27.4666 464.605 29.5662L466.482 26.0338C461.901 23.6001 456.807 22.4 451.244 22.4V26.4ZM464.605 29.5662C468.529 31.6509 471.586 34.6427 473.801 38.5805L477.287 36.6195C474.702 32.024 471.091 28.4825 466.482 26.0338L464.605 29.5662ZM473.819 38.6128C476.08 42.4622 477.244 47.002 477.244 52.3H481.244C481.244 46.398 479.941 41.1378 477.268 36.5872L473.819 38.6128ZM451.344 34.2C447.408 34.2 443.97 35.3249 441.163 37.6636L443.724 40.7364C445.718 39.0751 448.213 38.2 451.344 38.2V34.2ZM441.163 37.6636C438.342 40.0145 436.665 43.2107 436.067 47.0959L440.021 47.7041C440.489 44.656 441.745 42.3855 443.724 40.7364L441.163 37.6636ZM438.044 49.4H464.544V45.4H438.044V49.4ZM466.52 47.0901C465.919 43.2629 464.236 40.1068 461.424 37.7636L458.863 40.8364C460.851 42.4932 462.102 44.7371 462.568 47.7099L466.52 47.0901ZM461.449 37.7845C458.651 35.3748 455.241 34.2 451.344 34.2V38.2C454.38 38.2 456.837 39.0918 458.839 40.8155L461.449 37.7845Z" fill="#282A30" mask="url(#path-1-outside-1_16_119)"/>
</svg>
