<svg width="234" height="76" viewBox="0 0 234 76" fill="none" xmlns="http://www.w3.org/2000/svg">
<mask id="path-1-outside-1_73_5" maskUnits="userSpaceOnUse" x="-2" y="-2" width="238" height="80" fill="black">
<rect fill="white" x="-2" y="-2" width="238" height="80"/>
<path d="M0.3 5H16.5V61.8H51.6V75H0.3V5ZM111.861 48.3C111.861 48.5 111.761 49.9 111.561 52.5H70.8609C71.5943 55.8333 73.3276 58.4667 76.0609 60.4C78.7943 62.3333 82.1943 63.3 86.2609 63.3C89.0609 63.3 91.5276 62.9 93.6609 62.1C95.8609 61.2333 97.8943 59.9 99.7609 58.1L108.061 67.1C102.994 72.9 95.5943 75.8 85.8609 75.8C79.7943 75.8 74.4276 74.6333 69.7609 72.3C65.0943 69.9 61.4943 66.6 58.9609 62.4C56.4276 58.2 55.1609 53.4333 55.1609 48.1C55.1609 42.8333 56.3943 38.1 58.8609 33.9C61.3943 29.6333 64.8276 26.3333 69.1609 24C73.5609 21.6 78.4609 20.4 83.8609 20.4C89.1276 20.4 93.8943 21.5333 98.1609 23.8C102.428 26.0667 105.761 29.3333 108.161 33.6C110.628 37.8 111.861 42.7 111.861 48.3ZM83.9609 32.2C80.4276 32.2 77.4609 33.2 75.0609 35.2C72.6609 37.2 71.1943 39.9333 70.6609 43.4H97.1609C96.6276 40 95.1609 37.3 92.7609 35.3C90.3609 33.2333 87.4276 32.2 83.9609 32.2ZM156.947 72.4C155.414 73.5333 153.514 74.4 151.247 75C149.047 75.5333 146.714 75.8 144.247 75.8C137.847 75.8 132.88 74.1667 129.347 70.9C125.88 67.6333 124.147 62.8333 124.147 56.5V34.4H115.847V22.4H124.147V9.3H139.747V22.4H153.147V34.4H139.747V56.3C139.747 58.5667 140.314 60.3333 141.447 61.6C142.647 62.8 144.314 63.4 146.447 63.4C148.914 63.4 151.014 62.7333 152.747 61.4L156.947 72.4ZM171.704 -5.96046e-06C174.504 -5.96046e-06 176.804 0.899994 178.604 2.7C180.404 4.43333 181.304 6.73333 181.304 9.6C181.304 10.9333 181.137 12.2667 180.804 13.6C180.471 14.9333 179.771 16.9333 178.704 19.6L172.904 34H163.004L167.304 18.2C165.637 17.4667 164.337 16.3667 163.404 14.9C162.471 13.4333 162.004 11.6667 162.004 9.6C162.004 6.73333 162.904 4.43333 164.704 2.7C166.571 0.899994 168.904 -5.96046e-06 171.704 -5.96046e-06ZM208.218 75.8C203.751 75.8 199.385 75.2667 195.118 74.2C190.851 73.0667 187.451 71.6667 184.918 70L190.118 58.8C192.518 60.3333 195.418 61.6 198.818 62.6C202.218 63.5333 205.551 64 208.818 64C215.418 64 218.718 62.3667 218.718 59.1C218.718 57.5667 217.818 56.4667 216.018 55.8C214.218 55.1333 211.451 54.5667 207.718 54.1C203.318 53.4333 199.685 52.6667 196.818 51.8C193.951 50.9333 191.451 49.4 189.318 47.2C187.251 45 186.218 41.8667 186.218 37.8C186.218 34.4 187.185 31.4 189.118 28.8C191.118 26.1333 193.985 24.0667 197.718 22.6C201.518 21.1333 205.985 20.4 211.118 20.4C214.918 20.4 218.685 20.8333 222.418 21.7C226.218 22.5 229.351 23.6333 231.818 25.1L226.618 36.2C221.885 33.5333 216.718 32.2 211.118 32.2C207.785 32.2 205.285 32.6667 203.618 33.6C201.951 34.5333 201.118 35.7333 201.118 37.2C201.118 38.8667 202.018 40.0333 203.818 40.7C205.618 41.3667 208.485 42 212.418 42.6C216.818 43.3333 220.418 44.1333 223.218 45C226.018 45.8 228.451 47.3 230.518 49.5C232.585 51.7 233.618 54.7667 233.618 58.7C233.618 62.0333 232.618 65 230.618 67.6C228.618 70.2 225.685 72.2333 221.818 73.7C218.018 75.1 213.485 75.8 208.218 75.8Z"/>
</mask>
<path d="M0.3 5V3H-1.7V5H0.3ZM16.5 5H18.5V3H16.5V5ZM16.5 61.8H14.5V63.8H16.5V61.8ZM51.6 61.8H53.6V59.8H51.6V61.8ZM51.6 75V77H53.6V75H51.6ZM0.3 75H-1.7V77H0.3V75ZM0.3 7H16.5V3H0.3V7ZM14.5 5V61.8H18.5V5H14.5ZM16.5 63.8H51.6V59.8H16.5V63.8ZM49.6 61.8V75H53.6V61.8H49.6ZM51.6 73H0.3V77H51.6V73ZM2.3 75V5H-1.7V75H2.3ZM111.561 52.5V54.5H113.413L113.555 52.6534L111.561 52.5ZM70.8609 52.5V50.5H68.3731L68.9076 52.9297L70.8609 52.5ZM76.0609 60.4L77.2159 58.7672L76.0609 60.4ZM93.6609 62.1L94.3632 63.9727L94.3786 63.9669L94.394 63.9608L93.6609 62.1ZM99.7609 58.1L101.231 56.7441L99.8448 55.2408L98.3727 56.6603L99.7609 58.1ZM108.061 67.1L109.567 68.4158L110.748 67.0638L109.531 65.7441L108.061 67.1ZM69.7609 72.3L68.8462 74.0786L68.8563 74.0838L68.8665 74.0889L69.7609 72.3ZM58.9609 62.4L57.2484 63.433L58.9609 62.4ZM58.8609 33.9L57.1412 32.8789L57.1364 32.8872L58.8609 33.9ZM69.1609 24L70.1092 25.761L70.1186 25.7558L69.1609 24ZM98.1609 23.8L99.0993 22.0338L98.1609 23.8ZM108.161 33.6L106.418 34.5805L106.427 34.5968L106.436 34.6128L108.161 33.6ZM75.0609 35.2L73.7806 33.6636L75.0609 35.2ZM70.6609 43.4L68.6842 43.0959L68.3297 45.4H70.6609V43.4ZM97.1609 43.4V45.4H99.4991L99.1368 43.0901L97.1609 43.4ZM92.7609 35.3L91.4559 36.8155L91.4681 36.8261L91.4806 36.8364L92.7609 35.3ZM109.861 48.3C109.861 48.2734 109.86 48.3269 109.846 48.5502C109.834 48.7415 109.816 49.0098 109.791 49.3575C109.741 50.052 109.667 51.0477 109.567 52.3466L113.555 52.6534C113.749 50.1275 113.861 48.6014 113.861 48.3H109.861ZM111.561 50.5H70.8609V54.5H111.561V50.5ZM68.9076 52.9297C69.7457 56.7391 71.7574 59.8057 74.906 62.0328L77.2159 58.7672C74.8978 57.1276 73.4428 54.9276 72.8142 52.0703L68.9076 52.9297ZM74.906 62.0328C78.044 64.2524 81.8709 65.3 86.2609 65.3V61.3C82.5176 61.3 79.5445 60.4143 77.2159 58.7672L74.906 62.0328ZM86.2609 65.3C89.2477 65.3 91.9605 64.8737 94.3632 63.9727L92.9587 60.2273C91.0947 60.9263 88.8742 61.3 86.2609 61.3V65.3ZM94.394 63.9608C96.8605 62.9892 99.1122 61.504 101.149 59.5397L98.3727 56.6603C96.6764 58.296 94.8614 59.4775 92.9279 60.2392L94.394 63.9608ZM98.2907 59.4559L106.591 68.4559L109.531 65.7441L101.231 56.7441L98.2907 59.4559ZM106.555 65.7842C101.964 71.0396 95.1808 73.8 85.8609 73.8V77.8C96.0077 77.8 104.025 74.7604 109.567 68.4158L106.555 65.7842ZM85.8609 73.8C80.0543 73.8 75.0024 72.6847 70.6554 70.5111L68.8665 74.0889C73.8528 76.582 79.5343 77.8 85.8609 77.8V73.8ZM70.6756 70.5214C66.3149 68.2788 63.0017 65.2269 60.6735 61.367L57.2484 63.433C59.9868 67.9731 63.8736 71.5212 68.8462 74.0786L70.6756 70.5214ZM60.6735 61.367C58.3445 57.5058 57.1609 53.1022 57.1609 48.1H53.1609C53.1609 53.7645 54.5107 58.8942 57.2484 63.433L60.6735 61.367ZM57.1609 48.1C57.1609 43.1595 58.3138 38.781 60.5855 34.9128L57.1364 32.8872C54.4748 37.419 53.1609 42.5071 53.1609 48.1H57.1609ZM60.5807 34.9211C62.9303 30.9638 66.0981 27.9207 70.1091 25.7609L68.2127 22.2391C63.5571 24.7459 59.8582 28.3029 57.1412 32.8789L60.5807 34.9211ZM70.1186 25.7558C74.2023 23.5283 78.7689 22.4 83.8609 22.4V18.4C78.1529 18.4 72.9195 19.6717 68.2032 22.2442L70.1186 25.7558ZM83.8609 22.4C88.8306 22.4 93.2704 23.4666 97.2226 25.5662L99.0993 22.0338C94.5181 19.6001 89.4246 18.4 83.8609 18.4V22.4ZM97.2226 25.5662C101.147 27.6509 104.203 30.6427 106.418 34.5805L109.904 32.6195C107.319 28.024 103.709 24.4825 99.0993 22.0338L97.2226 25.5662ZM106.436 34.6128C108.697 38.4622 109.861 43.002 109.861 48.3H113.861C113.861 42.398 112.558 37.1378 109.886 32.5872L106.436 34.6128ZM83.9609 30.2C80.0248 30.2 76.587 31.3249 73.7806 33.6636L76.3413 36.7364C78.3349 35.0751 80.8304 34.2 83.9609 34.2V30.2ZM73.7806 33.6636C70.9595 36.0145 69.2819 39.2107 68.6842 43.0959L72.6377 43.7041C73.1066 40.656 74.3624 38.3855 76.3413 36.7364L73.7806 33.6636ZM70.6609 45.4H97.1609V41.4H70.6609V45.4ZM99.1368 43.0901C98.5364 39.2629 96.8532 36.1068 94.0413 33.7636L91.4806 36.8364C93.4686 38.4932 94.7188 40.7371 95.1851 43.7099L99.1368 43.0901ZM94.066 33.7845C91.2677 31.3748 87.8579 30.2 83.9609 30.2V34.2C86.9974 34.2 89.4542 35.0918 91.4559 36.8155L94.066 33.7845ZM156.947 72.4L158.136 74.0084L159.357 73.1056L158.815 71.6866L156.947 72.4ZM151.247 75L151.718 76.9437L151.738 76.9388L151.759 76.9334L151.247 75ZM129.347 70.9L127.975 72.3556L127.982 72.3621L127.989 72.3685L129.347 70.9ZM124.147 34.4H126.147V32.4H124.147V34.4ZM115.847 34.4H113.847V36.4H115.847V34.4ZM115.847 22.4V20.4H113.847V22.4H115.847ZM124.147 22.4V24.4H126.147V22.4H124.147ZM124.147 9.3V7.3H122.147V9.3H124.147ZM139.747 9.3H141.747V7.3H139.747V9.3ZM139.747 22.4H137.747V24.4H139.747V22.4ZM153.147 22.4H155.147V20.4H153.147V22.4ZM153.147 34.4V36.4H155.147V34.4H153.147ZM139.747 34.4V32.4H137.747V34.4H139.747ZM141.447 61.6L139.956 62.9336L139.993 62.975L140.033 63.0142L141.447 61.6ZM152.747 61.4L154.615 60.6866L153.657 58.1767L151.527 59.8148L152.747 61.4ZM155.758 70.7916C154.469 71.7447 152.812 72.5168 150.735 73.0666L151.759 76.9334C154.215 76.2832 156.358 75.322 158.136 74.0084L155.758 70.7916ZM150.776 73.0563C148.743 73.5491 146.569 73.8 144.247 73.8V77.8C146.858 77.8 149.351 77.5176 151.718 76.9437L150.776 73.0563ZM144.247 73.8C138.18 73.8 133.76 72.2564 130.705 69.4315L127.989 72.3685C132 76.0769 137.513 77.8 144.247 77.8V73.8ZM130.718 69.4444C127.773 66.6685 126.147 62.4719 126.147 56.5H122.147C122.147 63.1948 123.988 68.5981 127.975 72.3556L130.718 69.4444ZM126.147 56.5V34.4H122.147V56.5H126.147ZM124.147 32.4H115.847V36.4H124.147V32.4ZM117.847 34.4V22.4H113.847V34.4H117.847ZM115.847 24.4H124.147V20.4H115.847V24.4ZM126.147 22.4V9.3H122.147V22.4H126.147ZM124.147 11.3H139.747V7.3H124.147V11.3ZM137.747 9.3V22.4H141.747V9.3H137.747ZM139.747 24.4H153.147V20.4H139.747V24.4ZM151.147 22.4V34.4H155.147V22.4H151.147ZM153.147 32.4H139.747V36.4H153.147V32.4ZM137.747 34.4V56.3H141.747V34.4H137.747ZM137.747 56.3C137.747 58.8919 138.399 61.1925 139.956 62.9336L142.937 60.2664C142.229 59.4742 141.747 58.2414 141.747 56.3H137.747ZM140.033 63.0142C141.698 64.68 143.927 65.4 146.447 65.4V61.4C144.7 61.4 143.595 60.92 142.861 60.1858L140.033 63.0142ZM146.447 65.4C149.295 65.4 151.839 64.6216 153.966 62.9852L151.527 59.8148C150.188 60.8451 148.532 61.4 146.447 61.4V65.4ZM150.878 62.1134L155.078 73.1134L158.815 71.6866L154.615 60.6866L150.878 62.1134ZM178.604 2.7L177.19 4.11421L177.203 4.12755L177.217 4.14063L178.604 2.7ZM180.804 13.6L178.864 13.1149L180.804 13.6ZM178.704 19.6L180.559 20.3472L180.561 20.3428L178.704 19.6ZM172.904 34V36H174.254L174.759 34.7472L172.904 34ZM163.004 34L161.074 33.4748L160.387 36H163.004V34ZM167.304 18.2L169.234 18.7252L169.686 17.0631L168.109 16.3694L167.304 18.2ZM163.404 14.9L161.717 15.9738L163.404 14.9ZM164.704 2.7L166.091 4.14063L166.092 4.13968L164.704 2.7ZM171.704 1.99999C174.032 1.99999 175.804 2.72855 177.19 4.11421L180.018 1.28578C177.804 -0.928562 174.976 -2.00001 171.704 -2.00001V1.99999ZM177.217 4.14063C178.566 5.4404 179.304 7.18951 179.304 9.59999H183.304C183.304 6.27715 182.241 3.42626 179.991 1.25936L177.217 4.14063ZM179.304 9.59999C179.304 10.7648 179.159 11.9353 178.864 13.1149L182.744 14.0851C183.116 12.598 183.304 11.1018 183.304 9.59999H179.304ZM178.864 13.1149C178.565 14.3095 177.908 16.2046 176.847 18.8572L180.561 20.3428C181.633 17.662 182.376 15.5572 182.744 14.0851L178.864 13.1149ZM176.849 18.8528L171.049 33.2528L174.759 34.7472L180.559 20.3472L176.849 18.8528ZM172.904 32H163.004V36H172.904V32ZM164.934 34.5252L169.234 18.7252L165.374 17.6748L161.074 33.4748L164.934 34.5252ZM168.109 16.3694C166.787 15.7875 165.802 14.9426 165.091 13.8262L161.717 15.9738C162.873 17.7908 164.488 19.1458 166.498 20.0306L168.109 16.3694ZM165.091 13.8262C164.398 12.7368 164.004 11.359 164.004 9.59999H160.004C160.004 11.9743 160.543 14.1299 161.717 15.9738L165.091 13.8262ZM164.004 9.59999C164.004 7.18951 164.741 5.4404 166.091 4.14063L163.317 1.25936C161.066 3.42626 160.004 6.27715 160.004 9.59999H164.004ZM166.092 4.13968C167.555 2.72944 169.376 1.99999 171.704 1.99999V-2.00001C168.431 -2.00001 165.587 -0.929451 163.316 1.26031L166.092 4.13968ZM195.118 74.2L194.605 76.133L194.619 76.1367L194.633 76.1403L195.118 74.2ZM184.918 70L183.104 69.1578L182.377 70.7226L183.819 71.6708L184.918 70ZM190.118 58.8L191.195 57.1146L189.267 55.8831L188.304 57.9578L190.118 58.8ZM198.818 62.6L198.254 64.5187L198.271 64.5238L198.289 64.5286L198.818 62.6ZM216.018 55.8L215.323 57.6755L216.018 55.8ZM207.718 54.1L207.418 56.0774L207.444 56.0813L207.47 56.0846L207.718 54.1ZM196.818 51.8L197.397 49.8856L196.818 51.8ZM189.318 47.2L187.86 48.5694L187.871 48.5809L187.882 48.5923L189.318 47.2ZM189.118 28.8L187.518 27.6L187.513 27.6066L189.118 28.8ZM197.718 22.6L196.998 20.7341L196.987 20.7385L197.718 22.6ZM222.418 21.7L221.966 23.6482L221.986 23.6528L222.006 23.6571L222.418 21.7ZM231.818 25.1L233.629 25.9484L234.398 24.3072L232.84 23.3809L231.818 25.1ZM226.618 36.2L225.636 37.9425L227.515 39.0007L228.429 37.0485L226.618 36.2ZM203.618 33.6L202.641 31.855L203.618 33.6ZM203.818 40.7L204.513 38.8245L203.818 40.7ZM212.418 42.6L212.747 40.6272L212.733 40.6249L212.72 40.6229L212.418 42.6ZM223.218 45L222.627 46.9106L222.647 46.917L222.669 46.923L223.218 45ZM230.518 49.5L229.06 50.8693L230.518 49.5ZM230.618 67.6L232.203 68.8194L230.618 67.6ZM221.818 73.7L222.509 75.5767L222.518 75.5734L222.527 75.57L221.818 73.7ZM208.218 73.8C203.912 73.8 199.709 73.2861 195.603 72.2597L194.633 76.1403C199.061 77.2472 203.59 77.8 208.218 77.8V73.8ZM195.631 72.267C191.487 71.1661 188.309 69.8369 186.017 68.3292L183.819 71.6708C186.594 73.4965 190.216 74.9672 194.605 76.133L195.631 72.267ZM186.732 70.8422L191.932 59.6422L188.304 57.9578L183.104 69.1578L186.732 70.8422ZM189.041 60.4854C191.633 62.1415 194.715 63.4779 198.254 64.5187L199.382 60.6813C196.121 59.7221 193.403 58.5252 191.195 57.1146L189.041 60.4854ZM198.289 64.5286C201.847 65.5056 205.359 66 208.818 66V62C205.744 62 202.589 61.5611 199.347 60.6713L198.289 64.5286ZM208.818 66C212.219 66 215.065 65.5897 217.13 64.5675C218.191 64.0425 219.109 63.3247 219.758 62.3609C220.416 61.3837 220.718 60.2708 220.718 59.1H216.718C216.718 59.5625 216.607 59.8788 216.44 60.1265C216.264 60.3878 215.945 60.6908 215.356 60.9825C214.121 61.5936 212.017 62 208.818 62V66ZM220.718 59.1C220.718 57.9107 220.357 56.795 219.591 55.8585C218.85 54.9532 217.833 54.3396 216.713 53.9245L215.323 57.6755C216.003 57.927 216.336 58.1968 216.495 58.3915C216.629 58.555 216.718 58.756 216.718 59.1H220.718ZM216.713 53.9245C214.689 53.1751 211.736 52.5867 207.966 52.1154L207.47 56.0846C211.167 56.5467 213.747 57.0915 215.323 57.6755L216.713 53.9245ZM208.018 52.1226C203.671 51.464 200.14 50.7148 197.397 49.8856L196.239 53.7144C199.23 54.6185 202.965 55.4026 207.418 56.0774L208.018 52.1226ZM197.397 49.8856C194.863 49.1197 192.656 47.7696 190.754 45.8077L187.882 48.5923C190.246 51.0304 193.039 52.747 196.239 53.7144L197.397 49.8856ZM190.776 45.8306C189.164 44.1147 188.218 41.538 188.218 37.8H184.218C184.218 42.1953 185.339 45.8853 187.86 48.5694L190.776 45.8306ZM188.218 37.8C188.218 34.8073 189.059 32.2306 190.723 29.9934L187.513 27.6066C185.31 30.5694 184.218 33.9927 184.218 37.8H188.218ZM190.718 30C192.454 27.6855 194.991 25.8203 198.449 24.4615L196.987 20.7385C192.979 22.3131 189.782 24.5812 187.518 27.6L190.718 30ZM198.438 24.4658C201.957 23.1076 206.169 22.4 211.118 22.4V18.4C205.8 18.4 201.079 19.1591 196.998 20.7341L198.438 24.4658ZM211.118 22.4C214.764 22.4 218.379 22.8157 221.966 23.6482L222.87 19.7518C218.99 18.851 215.072 18.4 211.118 18.4V22.4ZM222.006 23.6571C225.662 24.4267 228.572 25.4966 230.796 26.8191L232.84 23.3809C230.131 21.7701 226.774 20.5733 222.83 19.7429L222.006 23.6571ZM230.007 24.2515L224.807 35.3515L228.429 37.0485L233.629 25.9484L230.007 24.2515ZM227.6 34.4575C222.557 31.6167 217.051 30.2 211.118 30.2V34.2C216.385 34.2 221.212 35.45 225.636 37.9425L227.6 34.4575ZM211.118 30.2C207.664 30.2 204.753 30.6722 202.641 31.855L204.595 35.345C205.816 34.6611 207.906 34.2 211.118 34.2V30.2ZM202.641 31.855C200.563 33.0185 199.118 34.7877 199.118 37.2H203.118C203.118 36.6789 203.34 36.0482 204.595 35.345L202.641 31.855ZM199.118 37.2C199.118 38.4145 199.454 39.5679 200.209 40.5466C200.948 41.5043 201.976 42.1506 203.123 42.5755L204.513 38.8245C203.86 38.5827 203.538 38.3123 203.377 38.1034C203.232 37.9154 203.118 37.6522 203.118 37.2H199.118ZM203.123 42.5755C205.124 43.3166 208.16 43.9736 212.116 44.5771L212.72 40.6229C208.81 40.0264 206.112 39.4167 204.513 38.8245L203.123 42.5755ZM212.089 44.5728C216.441 45.2981 219.945 46.0804 222.627 46.9106L223.809 43.0894C220.891 42.1862 217.195 41.3686 212.747 40.6272L212.089 44.5728ZM222.669 46.923C225.108 47.6201 227.231 48.9224 229.06 50.8693L231.976 48.1306C229.671 45.6776 226.928 43.9799 223.767 43.077L222.669 46.923ZM229.06 50.8693C230.683 52.5968 231.618 55.1164 231.618 58.7H235.618C235.618 54.4169 234.486 50.8031 231.976 48.1306L229.06 50.8693ZM231.618 58.7C231.618 61.6 230.759 64.1363 229.033 66.3806L232.203 68.8194C234.477 65.8637 235.618 62.4667 235.618 58.7H231.618ZM229.033 66.3806C227.311 68.6191 224.718 70.4608 221.109 71.83L222.527 75.57C226.651 74.0058 229.925 71.7809 232.203 68.8194L229.033 66.3806ZM221.127 71.8233C217.603 73.1214 213.316 73.8 208.218 73.8V77.8C213.653 77.8 218.433 77.0786 222.509 75.5767L221.127 71.8233Z" fill="#282A30" mask="url(#path-1-outside-1_73_5)"/>
</svg>
